# xmcd
#
# Track frame offsets: 
#        183
#        14753
#        28873
#        43698
#        56920
#        68990
#        86185
#        99733
#        121955
#        137978
#        153780
#        170633
#        183015
#        197073
#
# Disc length: 2823 seconds
#
# Revision: 3
# Processed by: cddbd v1.5.2PL0 Copyright (c) Steve Scherf et al.
# Submitted via: ExactAudioCopy v0.95b3
#
DISCID=cb0b050e
DTITLE=Various Artist - Stars and Trucks
DYEAR=1991
DGENRE=Country
TTITLE0=Jonny Hill - Nur noch einmal nach Haus (Detroit City)
TTITLE1=Tom Astor and Ralf Paulsen - Verdammt, mein Sohn hat dein Gesich
TTITLE1=t
TTITLE2=Hains Kirstain - Ich moecht' so gern nach Nashville Tennessee
TTITLE3=Meilenweit
TTITLE4=Sammy's Saloon and Nancy Wood  - Starg genug (We've Been Strong 
TTITLE4=Long Enough)
TTITLE5=Andre Kentucky and Hill's Angels - 18 Raeder und ein Dutzend Ros
TTITLE5=en
TTITLE6=Western Union - Frei wie ein Adler
TTITLE7=Emsland Hillbillies - Bauer Barnes Muehle
TTITLE8=Tennessee - Nashville Tennessee
TTITLE9=Nancy Wood - Sein bester Freund
TTITLE10=Gunter Gabriel  - (Wir sind) Die Fahrer
TTITLE11=Highway Cowboys - Der Wilde, wilde Westen
TTITLE12=Frank Daum and Contry Green mit Tommy Oregon and Jill Morris - Sc
TTITLE12=hlaf nicht ein hinterm Lenkrad
TTITLE13=Tom Astor - Truckers Glueck
EXTD=
EXTT0=
EXTT1=
EXTT2=
EXTT3=
EXTT4=
EXTT5=
EXTT6=
EXTT7=
EXTT8=
EXTT9=
EXTT10=
EXTT11=
EXTT12=
EXTT13=
PLAYORDER=
